<svg xmlns="http://www.w3.org/2000/svg" viewBox="0 0 100 100" fill="#17181b">
<path d="M50.00,50.00 L52.60,37.00 L50.00,4.00 L47.40,37.00 Z M50.00,50.00 L56.15,43.16 L65.00,24.02 L52.85,41.26 Z M50.00,50.00 L58.74,47.15 L75.98,35.00 L56.84,43.85 Z M50.00,50.00 L63.00,52.60 L96.00,50.00 L63.00,47.40 Z M50.00,50.00 L56.84,56.15 L75.98,65.00 L58.74,52.85 Z M50.00,50.00 L52.85,58.74 L65.00,75.98 L56.15,56.84 Z M50.00,50.00 L47.40,63.00 L50.00,96.00 L52.60,63.00 Z M50.00,50.00 L43.85,56.84 L35.00,75.98 L47.15,58.74 Z M50.00,50.00 L41.26,52.85 L24.02,65.00 L43.16,56.15 Z M50.00,50.00 L37.00,47.40 L4.00,50.00 L37.00,52.60 Z M50.00,50.00 L43.16,43.85 L24.02,35.00 L41.26,47.15 Z M50.00,50.00 L47.15,41.26 L35.00,24.02 L43.85,43.16 Z"/>
</svg>
